<svg width="1138" height="1017" viewBox="0 0 1138 1017" fill="none" xmlns="http://www.w3.org/2000/svg">
<path d="M921.267 604.21C943.093 519.145 933.544 428.785 894.26 348.647L883.686 353.365C921.792 431.1 931.054 518.749 909.884 601.261L921.267 604.21Z" fill="#EA1A25"/>
<path d="M795.195 206.831C757.321 174.744 713.263 150.707 665.537 136.093C617.811 121.478 567.353 116.573 517.041 121.657L517.789 133.258C566.581 128.328 615.517 133.085 661.802 147.258C708.086 161.431 750.814 184.742 787.545 215.861L795.195 206.831Z" fill="#EA1A25"/>
<path d="M625.267 888.935C712.801 869.86 790.464 819.164 844.407 745.886L835.329 738.687C783.004 809.767 707.671 858.942 622.764 877.445L625.267 888.935Z" fill="#EA1A25"/>
<path d="M222.003 732.621C250.71 773.118 287.408 807.355 330.001 833.376C372.595 859.398 420.25 876.695 470.245 884.28L472.392 872.929C423.896 865.572 377.671 848.794 336.355 823.553C295.04 798.312 259.443 765.102 231.597 725.821L222.003 732.621Z" fill="#EA1A25"/>
<path d="M242.405 699.698C271.112 740.195 307.81 774.431 350.403 800.453C392.996 826.475 440.651 843.772 490.646 851.356L492.793 840.006C444.298 832.648 398.073 815.87 356.757 790.629C315.441 765.388 279.844 732.179 251.999 692.897L242.405 699.698Z" fill="#EA1A25"/>
<path d="M262.806 666.774C291.513 707.271 328.211 741.508 370.805 767.529C413.398 793.551 461.053 810.848 511.048 818.433L513.195 807.082C464.699 799.725 418.474 782.947 377.159 757.706C335.843 732.465 300.246 699.255 272.4 659.973L262.806 666.774Z" fill="#EA1A25"/>
<path d="M564.064 827.43C651.484 808.38 729.062 757.79 782.999 684.658L773.927 677.451C721.608 748.389 646.357 797.461 561.56 815.94L564.064 827.43Z" fill="#EA1A25"/>
<path d="M592.064 856.43C679.986 837.27 757.935 786.212 811.898 712.436L802.799 705.265C750.455 776.828 674.844 826.355 589.56 844.94L592.064 856.43Z" fill="#EA1A25"/>
<path d="M388.349 156.262C314.041 191.782 252.011 249.97 211.224 322.414L221.142 327.919C260.705 257.648 320.874 201.206 392.953 166.752L388.349 156.262Z" fill="#EA1A25"/>
<path d="M167.516 437.167C157.477 501.943 163.494 568.591 185.011 630.939L195.715 627.188C174.843 566.711 169.007 502.063 178.745 439.23L167.516 437.167Z" fill="#EA1A25"/>
<path d="M407.446 196.764C334.485 234.839 274.554 295.015 236.287 368.624L246.398 373.772C283.517 302.371 341.65 244.001 412.422 207.068L407.446 196.764Z" fill="#EA1A25"/>
<path d="M434.866 233.228C362.328 272.166 303.084 333.037 265.669 407.072L275.844 412.096C312.137 340.281 369.603 281.237 439.965 243.467L434.866 233.228Z" fill="#EA1A25"/>
</svg>
